<svg width="99" height="23" viewBox="0 0 99 23" fill="none" xmlns="http://www.w3.org/2000/svg">
    <path d="M26.849 17.8569H28.9626L23.4381 4.95557H23.3331L17.8086 17.8569H19.6272L20.9042 14.7791H25.6204L26.849 17.8569ZM21.5589 13.2083L23.3088 8.99821L24.99 13.2083H21.5589Z" fill="#0E2027"/>
    <path d="M41.9084 5.35429L41.9448 14.0296L32.8155 4.95959H32.7266V17.7573H34.5977L34.5492 9.22949L43.6947 18.1879H43.7472V5.35429H41.9084Z" fill="#0E2027"/>
    <path d="M49.2461 17.7772V5.37024H52.7459C53.9946 5.37024 55.0575 5.55762 55.9345 5.93238C56.8114 6.30714 57.5187 6.80151 58.0562 7.41947C58.5936 8.03344 58.9857 8.71917 59.2362 9.47268C59.4827 10.2222 59.608 10.9837 59.608 11.7452C59.608 12.6701 59.4423 13.4994 59.1069 14.2409C58.7715 14.9825 58.3148 15.6164 57.7409 16.1466C57.163 16.6769 56.5002 17.0795 55.7486 17.3586C54.9969 17.6377 54.2007 17.7772 53.3601 17.7772H49.2542H49.2461ZM51.1011 16.0191H53.0045C53.6875 16.0191 54.3139 15.9234 54.8837 15.728C55.4535 15.5327 55.9506 15.2496 56.375 14.8748C56.7953 14.5001 57.1226 14.0376 57.353 13.4914C57.5833 12.9452 57.7005 12.3193 57.7005 11.6136C57.7005 10.8521 57.5712 10.1863 57.3085 9.62418C57.0499 9.06204 56.7064 8.59159 56.278 8.22481C55.8496 7.85802 55.3768 7.58293 54.8474 7.40352C54.322 7.2281 53.7885 7.1364 53.247 7.1364H51.1011V16.023V16.0191Z" fill="#0E2027"/>
    <path d="M71.7224 7.08055C72.3327 7.08055 72.8298 7.57093 72.8298 8.17294V16.0629H66.392C65.7817 16.0629 65.2846 15.5725 65.2846 14.9705V7.08055H71.7224ZM71.7224 5.36621H63.5469V14.9665C63.5469 16.5174 64.8199 17.7732 66.392 17.7732H74.5675V8.17294C74.5675 6.62206 73.2945 5.36621 71.7224 5.36621Z" fill="#0E2027"/>
    <path d="M14.3912 8.88662V6.70583C14.3912 5.96826 13.781 5.37024 13.0333 5.37024H3.26953V16.4217C3.26953 17.1593 3.87977 17.7573 4.62741 17.7573H13.0333C13.781 17.7573 14.3912 17.1593 14.3912 16.4217V14.1971H12.6575V16.043H5.0073V12.6143H9.50123V10.904H5.0073V7.08457H12.6575V8.88662H14.3912Z" fill="#0E2027"/>
    <path fill-rule="evenodd" clip-rule="evenodd" d="M94.0301 2.39608H78.4023V17.4543C78.4023 19.1248 79.7764 20.4763 81.4657 20.4763H96.7297V5.05529C96.7297 3.58415 95.5213 2.39209 94.0301 2.39209V2.39608ZM91.9249 7.15326C92.3194 7.54249 92.3194 8.17357 91.9249 8.56281L89.0103 11.438L91.9065 14.2936C92.3012 14.6827 92.3013 15.3138 91.9069 15.7031C91.5124 16.0925 90.8727 16.0927 90.4781 15.7035L87.5815 12.8476L84.6505 15.7391C84.256 16.1283 83.6163 16.1283 83.2217 15.7391C82.8271 15.3499 82.8271 14.7188 83.2217 14.3295L86.1523 11.4384L83.1633 8.49135C82.7686 8.10222 82.7685 7.47114 83.1629 7.0818C83.5574 6.69245 84.1971 6.69228 84.5917 7.08141L87.5811 10.0289L90.4961 7.15326C90.8906 6.76402 91.5303 6.76402 91.9249 7.15326Z" fill="#0E2027"/>
</svg>